<svg width="227" height="221" viewBox="0 0 227 221" fill="none" xmlns="http://www.w3.org/2000/svg">
<path d="M27.3657 1.96569C18.7793 -1.36723 9.02837 2.87791 6.57886 11.7568C-0.571813 37.6763 -1.3018 65.0393 4.57067 91.4503C11.6538 123.306 28.0243 152.346 51.6119 174.898C75.1996 197.45 104.945 212.502 137.087 218.148C163.734 222.83 191.037 220.873 216.61 212.567C225.37 209.721 229.173 199.79 225.458 191.361C221.744 182.933 211.916 179.224 203.086 181.844C183.621 187.62 163.005 188.836 142.858 185.297C117.214 180.792 93.4814 168.783 74.662 150.79C55.8426 132.797 42.7814 109.627 37.1301 84.2107C32.6903 64.2431 32.9805 43.5935 37.8775 23.8881C40.0988 14.9494 35.9521 5.2986 27.3657 1.96569Z" fill="url(#paint0_linear_0_198)"/>
<defs>
<linearGradient id="paint0_linear_0_198" x1="8.58199" y1="0.867994" x2="237.327" y2="216.507" gradientUnits="userSpaceOnUse">
<stop stop-color="#54AFF0"/>
<stop offset="1" stop-color="#54AFF0" stop-opacity="0"/>
</linearGradient>
</defs>
</svg>
