<svg width="46" height="92" viewBox="0 0 46 92" fill="none" xmlns="http://www.w3.org/2000/svg">
<path d="M46 7.04631C46 3.15474 42.8272 -0.0551603 38.9812 0.538632C35.3555 1.0984 31.8015 2.09118 28.3966 3.50154C22.8156 5.81326 17.7446 9.20159 13.4731 13.4731C9.20159 17.7446 5.81326 22.8156 3.50154 28.3966C1.18982 33.9775 -1.92016e-07 39.9592 0 46C1.92016e-07 52.0408 1.18983 58.0225 3.50154 63.6034C5.81326 69.1844 9.20159 74.2554 13.4731 78.5269C17.7446 82.7984 22.8156 86.1867 28.3966 88.4985C31.8015 89.9088 35.3555 90.9016 38.9812 91.4614C42.8272 92.0552 46 88.8453 46 84.9537C46 81.0621 42.8078 77.9849 39.0108 77.1325C37.2304 76.7328 35.4834 76.1802 33.7896 75.4786C29.9184 73.8751 26.4009 71.5248 23.4381 68.5619C20.4752 65.5991 18.1249 62.0816 16.5214 58.2104C14.9179 54.3392 14.0926 50.1901 14.0926 46C14.0926 41.8099 14.9179 37.6608 16.5214 33.7896C18.1249 29.9184 20.4752 26.4009 23.4381 23.4381C26.4009 20.4752 29.9184 18.1249 33.7896 16.5214C35.4834 15.8198 37.2304 15.2672 39.0108 14.8675C42.8078 14.0151 46 10.9379 46 7.04631Z" fill="url(#paint0_linear_0_298)"/>
<defs>
<linearGradient id="paint0_linear_0_298" x1="40.1455" y1="1.22985e-06" x2="85.7273" y2="74.8545" gradientUnits="userSpaceOnUse">
<stop stop-color="#54AFF0"/>
<stop offset="1" stop-color="#54AFF0" stop-opacity="0"/>
</linearGradient>
</defs>
</svg>
