<svg width="172" height="49" viewBox="0 0 172 49" fill="none" xmlns="http://www.w3.org/2000/svg">
<path d="M49.2383 13.6724H53.5884V35.215H49.2383V13.6724ZM55.3139 27.081C55.3139 21.7531 57.9819 18.5741 62.1 18.5741C66.2181 18.5741 68.8861 21.7531 68.8861 27.081C68.8861 32.409 66.2761 35.6057 62.1 35.6057C57.9239 35.6057 55.3139 32.4978 55.3139 27.081ZM64.5216 27.081C64.5216 24.1507 63.579 22.428 62.1 22.428C60.621 22.428 59.693 24.204 59.693 27.081C59.693 29.9581 60.6065 31.6986 62.1 31.6986C63.5935 31.6986 64.5216 30.0647 64.5216 27.0988V27.081ZM70.5247 36.2628H74.7007C74.8995 36.8036 75.2355 37.2514 75.6587 37.5394C76.082 37.8274 76.5699 37.9403 77.0498 37.8612C78.7028 37.8612 79.5728 36.7601 79.5728 35.1617V32.1781H79.4858C79.1392 33.0925 78.5768 33.8588 77.8712 34.3779C77.1656 34.8971 76.3492 35.1454 75.5272 35.0907C72.3517 35.0907 70.2491 32.1248 70.2491 27.0278C70.2491 21.9307 72.2502 18.7162 75.5852 18.7162C76.4329 18.6755 77.2705 18.9531 77.9858 19.5117C78.701 20.0704 79.2599 20.8834 79.5873 21.8419V18.876H83.9374V35.0374C83.9374 38.9268 81.1388 41.3421 77.0063 41.3421C73.1637 41.3421 70.7712 39.2287 70.5247 36.2806V36.2628ZM79.5873 27.0633C79.5873 24.4704 78.6158 22.8365 77.0788 22.8365C75.5417 22.8365 74.5992 24.4526 74.5992 27.0633C74.5992 29.674 75.5272 31.148 77.0788 31.148C78.6303 31.148 79.5873 29.7095 79.5873 27.081V27.0633ZM85.5759 27.0633C85.5759 21.7354 88.2439 18.5564 92.362 18.5564C96.4801 18.5564 99.1626 21.7354 99.1626 27.0633C99.1626 32.3912 96.5526 35.588 92.362 35.588C88.1714 35.588 85.5759 32.4978 85.5759 27.081V27.0633ZM94.7835 27.0633C94.7835 24.1329 93.841 22.4102 92.362 22.4102C90.883 22.4102 90.0275 24.204 90.0275 27.0988C90.0275 29.9937 90.941 31.7163 92.42 31.7163C93.899 31.7163 94.7835 30.0647 94.7835 27.0988V27.0633ZM100.816 15.0044C100.804 14.4665 100.924 13.9365 101.158 13.4817C101.393 13.0269 101.733 12.6677 102.135 12.4497C102.536 12.2317 102.982 12.1646 103.415 12.2571C103.847 12.3495 104.248 12.5973 104.566 12.969C104.883 13.3406 105.104 13.8195 105.199 14.3448C105.294 14.8701 105.26 15.4182 105.101 15.9197C104.941 16.4211 104.664 16.8533 104.304 17.1615C103.944 17.4696 103.517 17.6399 103.078 17.6506C102.786 17.6751 102.494 17.6256 102.219 17.5052C101.945 17.3848 101.693 17.1961 101.481 16.9509C101.268 16.7057 101.1 16.4094 100.985 16.0806C100.871 15.7517 100.813 15.3974 100.816 15.0399V15.0044ZM100.816 18.9116H105.166V35.215H100.816V18.9116ZM120.956 27.0633C120.956 32.3912 119.028 35.4281 115.722 35.4281C114.874 35.4948 114.03 35.241 113.304 34.701C112.578 34.161 112.005 33.3609 111.662 32.409H111.575V40.4364H107.225V18.876H111.575V21.7886H111.662C111.989 20.8209 112.551 20 113.272 19.4376C113.993 18.8752 114.839 18.5985 115.693 18.6452C119.028 18.7162 121.014 21.7709 121.014 27.0988L120.956 27.0633ZM116.606 27.0633C116.606 24.4704 115.635 22.8187 114.112 22.8187C112.59 22.8187 111.618 24.4881 111.604 27.0633C111.589 29.6385 112.59 31.2901 114.112 31.2901C115.635 31.2901 116.606 29.674 116.606 27.0988V27.0633ZM128.424 18.5386C132.035 18.5386 134.224 20.6343 134.326 23.9909H130.367C130.367 22.8365 129.584 22.1083 128.381 22.1083C127.177 22.1083 126.641 22.6766 126.641 23.5113C126.641 24.346 127.119 24.6124 128.091 24.8611L130.875 25.5537C133.528 26.2463 134.659 27.5606 134.659 30.0292C134.659 33.4035 132.151 35.5702 128.453 35.5702C124.756 35.5702 122.334 33.4035 122.146 30.0824H126.336C126.467 31.2901 127.25 32.0005 128.526 32.0005C129.802 32.0005 130.382 31.4855 130.382 30.633C130.382 29.7805 129.976 29.6029 128.932 29.3365L126.423 28.6794C123.828 28.0223 122.465 26.3351 122.465 23.8488C122.494 20.652 124.828 18.5741 128.424 18.5741V18.5386ZM149.174 35.1795H144.983V32.1426H144.896C144.666 33.1622 144.158 34.0546 143.456 34.6717C142.755 35.2887 141.902 35.5933 141.039 35.5347C140.378 35.5807 139.717 35.4524 139.1 35.1586C138.483 34.8647 137.925 34.412 137.463 33.8312C137.001 33.2504 136.647 32.5549 136.423 31.7917C136.199 31.0286 136.112 30.2156 136.167 29.4076V18.876H140.517V28.1822C140.517 30.118 141.329 31.148 142.678 31.148C142.994 31.1488 143.307 31.0668 143.595 30.9075C143.883 30.7482 144.14 30.5152 144.349 30.2243C144.558 29.9333 144.713 29.5911 144.805 29.2205C144.897 28.8499 144.923 28.4596 144.882 28.0756V18.876H149.232L149.174 35.1795ZM151.276 18.876H155.482V22.0195H155.569C155.799 21.0134 156.296 20.1294 156.981 19.506C157.666 18.8825 158.5 18.5548 159.353 18.5741C160.221 18.489 161.083 18.8072 161.769 19.4653C162.454 20.1235 162.911 21.0734 163.051 22.1261H163.138C163.401 21.0622 163.945 20.1357 164.686 19.4926C165.426 18.8495 166.32 18.5264 167.227 18.5741C167.818 18.5498 168.407 18.6782 168.956 18.9509C169.504 19.2237 170 19.6347 170.41 20.1573C170.82 20.6798 171.136 21.3023 171.337 21.9842C171.538 22.6661 171.62 23.3921 171.577 24.1152V35.215H167.227V25.5359C167.227 23.76 166.574 22.943 165.356 22.943C165.085 22.9402 164.816 23.0088 164.567 23.1441C164.319 23.2794 164.098 23.4784 163.918 23.7275C163.738 23.9766 163.603 24.2701 163.524 24.5882C163.444 24.9063 163.421 25.2416 163.457 25.5715V35.215H159.324V25.4649C159.324 23.831 158.672 22.943 157.483 22.943C157.208 22.9431 156.936 23.0146 156.686 23.1526C156.435 23.2907 156.212 23.4922 156.029 23.744C155.847 23.9957 155.711 24.2919 155.629 24.6131C155.547 24.9342 155.521 25.273 155.554 25.607V35.215H151.204L151.276 18.876Z" fill="#394149"/>
<path d="M37.1922 14.7121C36.4645 12.6539 35.5013 10.7358 34.3323 9.01667C32.6041 6.39948 30.4474 4.26466 28.0041 2.75273C25.5609 1.2408 22.8864 0.386038 20.1569 0.244699C17.4273 0.103359 14.7045 0.678644 12.1676 1.9327C9.63073 3.18675 7.33733 5.09114 5.43835 7.52051C3.53937 9.94989 2.07786 12.8492 1.15002 16.0275C0.222172 19.2059 -0.150973 22.5913 0.0551467 25.9609C0.261266 29.3305 1.04197 32.6079 2.34589 35.5774C3.6498 38.5469 5.44735 41.1412 7.62023 43.1895C9.01447 44.53 10.5551 45.6198 12.1962 46.4263C14.4971 47.5926 16.9596 48.1934 19.4462 48.1951C24.5789 48.1811 29.4978 45.6503 33.1246 41.1577C36.7513 36.665 38.79 30.577 38.7938 24.2282C38.7976 20.9533 38.2522 17.7131 37.1922 14.7121ZM19.4319 5.10766C21.6649 5.10737 23.8709 5.71106 25.8954 6.87644C25.4017 7.14029 24.8827 7.32457 24.351 7.42477C22.6016 7.73801 20.9809 8.74264 19.731 10.2887C18.481 11.8348 17.6688 13.8394 17.4156 16.0033C17.3044 17.2169 16.8582 18.346 16.1522 19.1999C15.4462 20.0538 14.5237 20.5803 13.5403 20.6906C11.7909 21.0038 10.1703 22.0085 8.92033 23.5546C7.67039 25.1006 6.85819 27.1052 6.60495 29.2692C6.51921 30.4231 6.12117 31.5075 5.47526 32.3469C4.36081 29.4341 3.86017 26.22 4.01993 23.0037C4.17969 19.7873 4.99465 16.6732 6.38897 13.9511C7.7833 11.229 9.71167 8.98751 11.9946 7.43511C14.2776 5.88271 16.841 5.06988 19.4462 5.07229L19.4319 5.10766ZM7.60593 36.6096C7.77753 36.415 7.94913 36.2382 8.12073 36.0259C9.39291 34.5003 10.2095 32.4863 10.4373 30.3128C10.5296 29.091 10.9707 27.9498 11.6814 27.0936C12.3653 26.213 13.2858 25.672 14.2696 25.5724C16.0191 25.2592 17.6397 24.2545 18.8897 22.7085C20.1396 21.1624 20.9518 19.1578 21.205 16.9939C21.2669 15.7159 21.7103 14.512 22.4491 13.6155C23.1499 12.7521 24.0792 12.2307 25.066 12.1474C26.6732 11.8739 28.1721 10.9901 29.3559 9.61805C30.7039 11.0014 31.846 12.6655 32.7307 14.5353C32.6763 14.6261 32.614 14.7091 32.5448 14.7829C31.8622 15.6712 30.9429 16.224 29.9565 16.3394C28.2053 16.6472 26.5822 17.65 25.3314 19.1971C24.0807 20.7442 23.2699 22.7518 23.0211 24.918C22.9203 26.1357 22.4823 27.2728 21.7813 28.1367C21.0802 29.0006 20.1593 29.5382 19.1745 29.6583C17.4199 29.9692 15.7932 30.9718 14.5361 32.5172C13.2789 34.0627 12.4583 36.0686 12.1962 38.2369C12.1192 39.1013 11.8792 39.9314 11.4955 40.6601C10.0283 39.5826 8.71429 38.2142 7.60593 36.6096ZM19.4319 43.4371C17.9808 43.439 16.5367 43.189 15.1419 42.6942C15.6191 41.594 15.9292 40.3951 16.0571 39.1566C16.1573 37.9417 16.5933 36.8067 17.2915 35.9431C17.9896 35.0795 18.9072 34.5403 19.8895 34.4163C21.6415 34.1066 23.2654 33.1035 24.5181 31.5571C25.7709 30.0108 26.5852 28.0042 26.8392 25.8377C26.9394 24.6228 27.3753 23.4878 28.0735 22.6242C28.7717 21.7606 29.6893 21.2214 30.6715 21.0974C31.99 20.8853 33.2466 20.2781 34.3323 19.3286C34.9351 22.155 35.0065 25.1146 34.541 27.9804C34.0755 30.8461 33.0855 33.542 31.6469 35.861C30.2084 38.18 28.3595 40.0606 26.242 41.3586C24.1246 42.6565 21.795 43.3373 19.4319 43.3487V43.4371Z" fill="#394149"/>
</svg>
