<svg width="188" height="52" viewBox="0 0 188 52" fill="none" xmlns="http://www.w3.org/2000/svg">
<path d="M46.2534 11.9929H50.7296V37.6919H46.2534V11.9929Z" fill="#394149"/>
<path d="M52.2224 28.2686C52.2224 26.4027 52.6611 24.5787 53.4827 23.028C54.3043 21.4773 55.4719 20.2696 56.8375 19.558C58.2032 18.8464 59.7053 18.663 61.1535 19.0309C62.6018 19.3989 63.931 20.3017 64.9725 21.6249C66.0141 22.9481 66.7212 24.6321 67.0043 26.4635C67.2873 28.2949 67.1334 30.1912 66.5623 31.9121C65.9911 33.6329 65.0283 35.1008 63.7959 36.1297C62.5635 37.1586 61.117 37.7021 59.6398 37.6915C58.66 37.7012 57.6885 37.4636 56.7824 36.9928C55.8762 36.522 55.0536 35.8275 54.3627 34.9498C53.6718 34.0722 53.1267 33.0291 52.7591 31.8818C52.3916 30.7346 52.2091 29.5061 52.2224 28.2686ZM62.908 28.2686C62.8912 27.4642 62.6871 26.6838 62.321 26.0252C61.955 25.3665 61.4434 24.8588 60.8501 24.5655C60.2568 24.2723 59.6083 24.2064 58.9855 24.3763C58.3628 24.5461 57.7935 24.9441 57.3489 25.5205C56.9043 26.0968 56.6041 26.826 56.4859 27.6167C56.3676 28.4075 56.4366 29.2247 56.6841 29.9662C56.9316 30.7077 57.3467 31.3406 57.8775 31.7856C58.4082 32.2307 59.0311 32.4682 59.6682 32.4685C60.102 32.4792 60.5328 32.3767 60.9338 32.1676C61.3348 31.9584 61.6973 31.647 61.9987 31.2528C62.3001 30.8586 62.5339 30.3902 62.6855 29.8767C62.837 29.3632 62.9031 28.8158 62.8796 28.2686H62.908Z" fill="#394149"/>
<path d="M85.0472 20.9593V37.7754C85.0472 43.7083 81.0887 46.2281 77.0845 46.2281C75.6721 46.3641 74.2554 46.0348 72.9938 45.277C71.7323 44.5193 70.676 43.3633 69.9438 41.9392L73.7958 39.3301C74.108 40.0688 74.6045 40.6782 75.2192 41.0773C75.834 41.4764 76.5377 41.6461 77.2367 41.5639C77.682 41.6283 78.1339 41.5764 78.5601 41.4119C78.9863 41.2474 79.3763 40.9744 79.7022 40.6125C80.028 40.2505 80.2817 39.8084 80.4451 39.318C80.6084 38.8275 80.6774 38.3008 80.6471 37.7754V36.1491C80.1156 36.9056 79.4412 37.5061 78.6774 37.9032C77.9136 38.3003 77.0815 38.4829 76.2471 38.4366C74.2281 38.4366 72.2918 37.4952 70.8641 35.8195C69.4365 34.1438 68.6345 31.8711 68.6345 29.5013C68.6345 27.1316 69.4365 24.8589 70.8641 23.1832C72.2918 21.5075 74.2281 20.5661 76.2471 20.5661C77.0815 20.5198 77.9136 20.7024 78.6774 21.0995C79.4412 21.4966 80.1156 22.0971 80.6471 22.8535V21.0665L85.0472 20.9593ZM80.6471 29.4477C80.6775 28.5928 80.4893 27.7467 80.1067 27.0182C79.7241 26.2898 79.1646 25.7124 78.5002 25.3602C77.8357 25.008 77.0967 24.8972 76.3782 25.0419C75.6596 25.1867 74.9944 25.5804 74.468 26.1725C73.9416 26.7646 73.5782 27.5279 73.4244 28.3644C73.2707 29.2009 73.3336 30.0722 73.6051 30.8664C73.8766 31.6605 74.3443 32.3412 74.9481 32.8208C75.5518 33.3005 76.264 33.5572 76.9931 33.5579C77.4688 33.5982 77.9464 33.5208 78.3951 33.3309C78.8438 33.141 79.2535 32.8427 79.5979 32.4554C79.9422 32.0681 80.2135 31.6002 80.3943 31.0822C80.575 30.5641 80.6612 30.0073 80.6471 29.4477Z" fill="#394149"/>
<path d="M86.5399 28.2686C86.5399 26.4042 87.0216 24.5817 87.924 23.0318C88.8263 21.4818 90.1089 20.2741 91.6093 19.5614C93.1096 18.8488 94.7604 18.6632 96.3527 19.0283C97.9449 19.3933 99.4071 20.2925 100.554 21.6121C101.701 22.9317 102.481 24.6123 102.796 26.4413C103.111 28.2704 102.946 30.1655 102.323 31.887C101.699 33.6084 100.645 35.0788 99.2937 36.112C97.9421 37.1453 96.354 37.6949 94.7304 37.6913C93.6505 37.7034 92.5795 37.4677 91.58 36.9982C90.5806 36.5287 89.6728 35.8348 88.9099 34.9572C88.1471 34.0795 87.5445 33.0359 87.1375 31.8873C86.7305 30.7388 86.5273 29.5085 86.5399 28.2686ZM98.2942 28.2686C98.2757 27.4634 98.0507 26.6824 97.6474 26.0234C97.244 25.3644 96.6803 24.8567 96.0268 24.564C95.3733 24.2713 94.6591 24.2065 93.9736 24.3778C93.2882 24.5491 92.6621 24.9489 92.1736 25.527C91.6852 26.1051 91.3562 26.8359 91.2279 27.6278C91.0996 28.4197 91.1777 29.2374 91.4523 29.9786C91.727 30.7198 92.186 31.3514 92.7719 31.7943C93.3578 32.2372 94.0445 32.4717 94.746 32.4684C95.2231 32.4791 95.6971 32.3767 96.1382 32.1675C96.5793 31.9583 96.9781 31.6469 97.3096 31.2528C97.6411 30.8586 97.8983 30.3901 98.065 29.8767C98.2317 29.3632 98.3044 28.8158 98.2785 28.2686H98.2942Z" fill="#394149"/>
<path d="M104.444 15.1851C104.444 14.5538 104.575 13.9366 104.821 13.4116C105.067 12.8867 105.417 12.4775 105.826 12.2359C106.235 11.9943 106.685 11.9311 107.119 12.0543C107.553 12.1774 107.952 12.4815 108.265 12.9279C108.578 13.3743 108.791 13.9431 108.877 14.5623C108.964 15.1816 108.919 15.8234 108.75 16.4067C108.581 16.99 108.294 17.4886 107.926 17.8393C107.558 18.1901 107.125 18.3773 106.682 18.3773C106.091 18.368 105.525 18.0287 105.107 17.432C104.689 16.8354 104.451 16.0288 104.444 15.1851ZM104.809 19.9375H108.581V37.6919H104.809V19.9375Z" fill="#394149"/>
<path d="M128.307 28.3368C128.358 29.5318 128.211 30.7271 127.873 31.8538C127.535 32.9806 127.013 34.0166 126.338 34.9022C125.663 35.7878 124.848 36.5056 123.939 37.0142C123.03 37.5227 122.046 37.8121 121.042 37.8656C120.191 37.9331 119.338 37.7706 118.547 37.3903C117.756 37.0101 117.047 36.4218 116.473 35.6694V44.5448H111.904V19.3525H116.473V21.0404C117.048 20.2903 117.757 19.7047 118.549 19.3275C119.34 18.9503 120.192 18.7913 121.042 18.8624C122.042 18.916 123.022 19.2036 123.928 19.7088C124.833 20.2139 125.647 20.9267 126.321 21.8065C126.996 22.6863 127.519 23.7158 127.859 24.8363C128.2 25.9567 128.352 27.1462 128.307 28.3368ZM123.738 28.3368C123.72 27.4938 123.494 26.6759 123.087 25.9856C122.681 25.2953 122.113 24.7633 121.454 24.4563C120.795 24.1492 120.074 24.0809 119.383 24.2597C118.691 24.4386 118.059 24.8567 117.566 25.4616C117.074 26.0666 116.741 26.8315 116.612 27.6604C116.482 28.4894 116.56 29.3456 116.837 30.1216C117.114 30.8976 117.577 31.559 118.168 32.0229C118.759 32.4867 119.452 32.7324 120.159 32.7291C120.644 32.7536 121.127 32.6557 121.578 32.4419C122.029 32.2281 122.436 31.9032 122.774 31.4885C123.112 31.0737 123.373 30.5786 123.539 30.0354C123.705 29.4922 123.773 28.9134 123.738 28.3368Z" fill="#394149"/>
<path d="M140.254 31.8114C140.254 35.9146 137.405 37.6603 134.385 37.6603C133.154 37.8004 131.917 37.4705 130.835 36.7134C129.754 35.9563 128.876 34.8066 128.317 33.4131L131.992 30.7856C132.138 31.4277 132.454 31.9872 132.887 32.3705C133.32 32.7538 133.844 32.9376 134.371 32.8912C135.382 32.8912 135.895 32.4952 135.895 31.7754C135.895 29.8137 128.958 30.8575 128.958 24.6847C128.958 20.7974 131.551 18.8537 134.485 18.8537C135.6 18.7906 136.708 19.1103 137.692 19.7789C138.675 20.4475 139.496 21.44 140.069 22.651L136.394 25.0986C136.231 24.6343 135.966 24.2394 135.63 23.9615C135.294 23.6836 134.901 23.5348 134.499 23.5329C133.759 23.5329 133.317 23.8928 133.317 24.5227C133.317 26.5743 140.254 25.2246 140.254 31.8114Z" fill="#394149"/>
<path d="M156.667 20.5591V37.1789H152.439V35.6176C151.959 36.3087 151.349 36.8556 150.659 37.2143C149.969 37.573 149.217 37.7334 148.466 37.6825C145.647 37.6825 143.238 35.2819 143.238 30.7996V20.5591H147.465V30.0441C147.432 30.4407 147.471 30.8411 147.581 31.2177C147.69 31.5943 147.867 31.9381 148.099 32.2255C148.33 32.5128 148.612 32.7367 148.923 32.8818C149.235 33.0269 149.569 33.0897 149.903 33.0659C151.425 33.0659 152.496 31.9915 152.496 29.7084V20.5591H156.667Z" fill="#394149"/>
<path d="M180.54 26.4363V37.6918H176.345V26.9176C176.345 25.0664 175.688 23.9186 174.36 23.9186C173.031 23.9186 172.192 25.1959 172.192 27.3619V37.6918H167.998V26.9176C167.998 25.0664 167.341 23.9186 166.012 23.9186C164.684 23.9186 163.845 25.1959 163.845 27.3619V37.6918H159.651V19.3646H163.845V21.0492C164.28 20.3049 164.847 19.7155 165.496 19.3341C166.145 18.9528 166.856 18.7915 167.564 18.8647C168.274 18.8157 168.981 19.0118 169.616 19.4338C170.25 19.8557 170.792 20.4889 171.186 21.2713C171.647 20.4539 172.256 19.8044 172.958 19.3836C173.66 18.9627 174.431 18.7842 175.199 18.8647C178.47 18.8647 180.54 21.8637 180.54 26.4363Z" fill="#394149"/>
<path d="M19.3969 7.48085V0H0V51.3979H19.3969V43.917C15.4234 43.917 11.6127 41.9976 8.80307 38.5811C5.99342 35.1645 4.41497 30.5307 4.41497 25.6989C4.41497 20.8672 5.99342 16.2334 8.80307 12.8168C11.6127 9.40025 15.4234 7.48086 19.3969 7.48085Z" fill="#394149"/>
<path d="M19.3962 6.85297V44.5447C23.3534 44.5447 27.1485 42.5592 29.9467 39.0249C32.7449 35.4906 34.3169 30.6971 34.3169 25.6988C34.3169 20.7006 32.7449 15.9071 29.9467 12.3728C27.1485 8.83851 23.3534 6.85297 19.3962 6.85297Z" fill="#394149"/>
<path d="M185.016 20.5592C186.664 20.5592 188 18.6416 188 16.2761C188 13.9106 186.664 11.9929 185.016 11.9929C183.368 11.9929 182.032 13.9106 182.032 16.2761C182.032 18.6416 183.368 20.5592 185.016 20.5592Z" fill="#394149"/>
</svg>
