<svg width="244" height="57" viewBox="0 0 244 57" fill="none" xmlns="http://www.w3.org/2000/svg">
<path d="M78.1019 44.705C76.721 44.7818 75.3552 44.3793 74.2248 43.5626C73.7524 43.2036 73.3724 42.7321 73.1176 42.1889C72.8627 41.6456 72.7408 41.0469 72.7621 40.4445V18.3804C72.7509 18.287 72.7605 18.1922 72.7903 18.1032C72.8202 18.0142 72.8694 17.9333 72.9344 17.8667C72.9993 17.8002 73.0782 17.7497 73.165 17.7191C73.2518 17.6885 73.3443 17.6786 73.4354 17.6902H77.3358C77.7769 17.6902 77.9859 17.9282 77.9859 18.3804V38.7308C77.9859 39.6353 78.3805 40.0875 79.1931 40.0875C79.5376 40.1021 79.8822 40.062 80.2146 39.9685C80.679 39.9685 80.9344 40.1113 80.9576 40.5398L81.3058 43.515C81.3225 43.6017 81.321 43.6911 81.3011 43.7772C81.2813 43.8632 81.2437 43.9439 81.191 44.0138C81.1382 44.0838 81.0713 44.1413 80.995 44.1825C80.9187 44.2237 80.8347 44.2477 80.7486 44.2528C79.8943 44.5421 79.0016 44.6947 78.1019 44.705Z" fill="#394149"/>
<path d="M96.1036 42.3293C94.3598 43.8709 92.1686 44.7142 89.9067 44.7142C87.6448 44.7142 85.4535 43.8709 83.7098 42.3293C82.1772 40.6738 81.3174 38.4378 81.3174 36.1076C81.3174 33.7773 82.1772 31.5413 83.7098 29.8858C85.4569 28.3522 87.6469 27.514 89.9067 27.514C92.1665 27.514 94.3565 28.3522 96.1036 29.8858C97.6009 31.5566 98.4368 33.7818 98.4368 36.0965C98.4368 38.4113 97.6009 40.6365 96.1036 42.3072V42.3293ZM86.9735 39.4119C87.7827 40.1962 88.8355 40.6306 89.9273 40.6306C91.0192 40.6306 92.072 40.1962 92.8812 39.4119C93.6136 38.5108 94.0169 37.357 94.0169 36.1628C94.0169 34.9687 93.6136 33.8148 92.8812 32.9138C92.072 32.1295 91.0192 31.6951 89.9273 31.6951C88.8355 31.6951 87.7827 32.1295 86.9735 32.9138C86.2411 33.8148 85.8378 34.9687 85.8378 36.1628C85.8378 37.357 86.2411 38.5108 86.9735 39.4119Z" fill="#394149"/>
<path d="M119.255 28.0718C119.646 28.0718 119.832 28.3117 119.832 28.7675V45.9685C119.868 47.1295 119.681 48.2852 119.286 49.3517C118.891 50.4182 118.297 51.3686 117.547 52.134C115.882 53.788 113.742 54.6453 111.556 54.5331C109.582 54.6139 107.635 53.9858 105.977 52.7338C105.27 52.1922 104.665 51.4868 104.201 50.6614C103.737 49.836 103.424 48.9082 103.281 47.9357C103.281 47.4559 103.281 47.24 103.836 47.24H107.295C107.442 47.2458 107.584 47.301 107.705 47.3989C107.825 47.4968 107.919 47.6333 107.974 47.7918C108.199 48.5204 108.646 49.1269 109.23 49.4951C109.942 49.9232 110.734 50.1376 111.536 50.1188C112.019 50.1497 112.503 50.068 112.959 49.8785C113.415 49.689 113.834 49.3956 114.191 49.0153C114.518 48.6174 114.772 48.1466 114.938 47.6313C115.104 47.1159 115.179 46.5666 115.159 46.0165V44.5051C113.92 45.5665 112.413 46.1153 110.877 46.0645C109.801 46.1101 108.729 45.9019 107.725 45.4526C106.72 45.0032 105.804 44.3219 105.03 43.4495C103.546 41.6602 102.717 39.2689 102.717 36.7803C102.717 34.2916 103.546 31.9003 105.03 30.111C105.807 29.2463 106.725 28.5716 107.729 28.1266C108.733 27.6816 109.803 27.4754 110.877 27.52C112.458 27.4714 114.005 28.0556 115.262 29.1753V28.7915C115.252 28.6995 115.26 28.6063 115.286 28.5185C115.311 28.4308 115.353 28.3507 115.408 28.2841C115.463 28.2174 115.53 28.166 115.605 28.1334C115.679 28.1009 115.759 28.088 115.838 28.0958L119.255 28.0718ZM111.268 41.7942C111.798 41.8134 112.326 41.6965 112.813 41.4519C113.3 41.2073 113.736 40.841 114.088 40.3788C114.773 39.3488 115.144 38.083 115.144 36.7803C115.144 35.4775 114.773 34.2117 114.088 33.1817C113.737 32.7257 113.304 32.3649 112.821 32.1245C112.337 31.8841 111.814 31.77 111.289 31.7903C110.752 31.7706 110.218 31.887 109.724 32.1314C109.23 32.3758 108.788 32.7423 108.427 33.2057C107.669 34.191 107.27 35.4819 107.315 36.8042C107.278 38.1136 107.668 39.3909 108.407 40.3788C108.768 40.8409 109.211 41.2066 109.705 41.4509C110.198 41.6952 110.732 41.8123 111.268 41.7942Z" fill="#394149"/>
<path d="M136.754 42.3397C135.001 43.8751 132.804 44.7142 130.537 44.7142C128.269 44.7142 126.072 43.8751 124.319 42.3397C122.815 40.6634 121.976 38.4319 121.976 36.1109C121.976 33.7898 122.815 31.5584 124.319 29.882C126.074 28.3506 128.27 27.514 130.537 27.514C132.803 27.514 135 28.3506 136.754 29.882C138.257 31.5547 139.095 33.7824 139.095 36.0998C139.095 38.4172 138.257 40.6449 136.754 42.3176V42.3397ZM127.573 39.4189C127.97 39.8225 128.439 40.1378 128.951 40.3467C129.463 40.5556 130.009 40.6539 130.557 40.6359C131.102 40.651 131.644 40.5512 132.153 40.3424C132.661 40.1336 133.126 39.8198 133.521 39.4189C134.244 38.5108 134.641 37.3579 134.641 36.1662C134.641 34.9745 134.244 33.8216 133.521 32.9135C133.126 32.5126 132.661 32.1988 132.153 31.99C131.644 31.7812 131.102 31.6814 130.557 31.6965C130.009 31.6785 129.463 31.7768 128.951 31.9857C128.439 32.1946 127.97 32.5099 127.573 32.9135C126.85 33.8216 126.453 34.9745 126.453 36.1662C126.453 37.3579 126.85 38.5108 127.573 39.4189Z" fill="#394149"/>
<path d="M146.268 22.7164C145.686 23.2682 144.941 23.5724 144.168 23.5724C143.396 23.5724 142.65 23.2682 142.069 22.7164C141.806 22.4466 141.596 22.1213 141.453 21.7604C141.309 21.3995 141.235 21.0106 141.235 20.6175C141.235 20.2245 141.309 19.8356 141.453 19.4747C141.596 19.1138 141.806 18.7885 142.069 18.5187C142.656 17.9807 143.4 17.6855 144.168 17.6855C144.937 17.6855 145.68 17.9807 146.268 18.5187C146.531 18.7885 146.741 19.1138 146.884 19.4747C147.028 19.8356 147.102 20.2245 147.102 20.6175C147.102 21.0106 147.028 21.3995 146.884 21.7604C146.741 22.1213 146.531 22.4466 146.268 22.7164ZM146.729 44.7066C145.423 44.7761 144.132 44.3735 143.059 43.5618C142.618 43.1967 142.265 42.7226 142.028 42.1791C141.791 41.6356 141.677 41.0383 141.696 40.4373V27.4626C141.685 27.369 141.694 27.274 141.723 27.1848C141.751 27.0956 141.797 27.0146 141.859 26.9479C141.92 26.8812 141.995 26.8306 142.077 26.7999C142.159 26.7693 142.247 26.7594 142.333 26.771H146.026C146.443 26.771 146.641 27.0095 146.641 27.4626V38.7201C146.641 39.6264 147.015 40.0796 147.762 40.0796C148.095 40.0926 148.429 40.0524 148.751 39.9603C149.191 39.9603 149.433 40.1034 149.454 40.5327L149.784 43.5141C149.8 43.601 149.799 43.6906 149.78 43.7768C149.761 43.863 149.725 43.9439 149.675 44.014C149.625 44.084 149.562 44.1417 149.49 44.183C149.418 44.2243 149.338 44.2483 149.257 44.2534C148.441 44.545 147.588 44.6979 146.729 44.7066Z" fill="#394149"/>
<path d="M163.208 27.5301C164.267 27.4838 165.322 27.6733 166.313 28.0873C167.304 28.5013 168.209 29.1314 168.976 29.9401C170.401 31.6337 171.194 33.8624 171.194 36.1772C171.194 38.4919 170.401 40.7207 168.976 42.4142C168.213 43.2301 167.309 43.8663 166.317 44.2844C165.326 44.7025 164.268 44.8937 163.208 44.8465C161.698 44.8837 160.219 44.3744 158.994 43.3961V51.4517C158.994 51.8757 158.792 52.0766 158.409 52.0766H155.022C154.944 52.0926 154.865 52.0875 154.79 52.0617C154.715 52.036 154.646 51.9904 154.591 51.9288C154.535 51.8673 154.494 51.7917 154.471 51.7086C154.447 51.6254 154.443 51.5373 154.457 51.4517V33.1535C154.481 32.9745 154.466 32.7919 154.415 32.6201C154.364 32.4484 154.277 32.2924 154.161 32.1645C154.046 32.0366 153.905 31.9403 153.749 31.8835C153.594 31.8266 153.429 31.8106 153.267 31.8369H152.602C152.158 31.8369 151.937 31.6584 151.937 31.3013V28.6682C151.926 28.5052 151.966 28.3433 152.051 28.2093C152.135 28.0753 152.259 27.9773 152.4 27.9318C153.098 27.6512 153.836 27.515 154.578 27.5301C155.318 27.4576 156.061 27.6313 156.711 28.0289C157.361 28.4264 157.889 29.0298 158.228 29.7616C158.877 29.0345 159.654 28.4616 160.51 28.0779C161.367 27.6943 162.285 27.5079 163.208 27.5301ZM160.063 39.5132C160.422 39.9291 160.854 40.26 161.333 40.4861C161.811 40.7122 162.325 40.8287 162.846 40.8287C163.366 40.8287 163.88 40.7122 164.359 40.4861C164.837 40.26 165.269 39.9291 165.628 39.5132C166.386 38.5785 166.784 37.3535 166.737 36.0991C166.79 34.8435 166.391 33.6159 165.628 32.6849C165.269 32.269 164.837 31.9381 164.359 31.712C163.88 31.4859 163.366 31.3694 162.846 31.3694C162.325 31.3694 161.811 31.4859 161.333 31.712C160.854 31.9381 160.422 32.269 160.063 32.6849C159.329 33.6323 158.947 34.8524 158.994 36.0991C158.953 37.3448 159.334 38.5625 160.063 39.5132Z" fill="#394149"/>
<path d="M181.124 44.7052C179.249 44.7865 177.39 44.3135 175.757 43.3397C175.101 42.9233 174.543 42.3567 174.124 41.6818C173.705 41.0069 173.435 40.2411 173.334 39.4412C173.334 39.0007 173.48 38.7804 173.94 38.7804H177.01C177.156 38.7864 177.298 38.8348 177.419 38.9203C177.541 39.0058 177.638 39.1251 177.699 39.265C178.138 40.4543 179.286 41.049 181.124 41.049C181.765 41.0799 182.404 40.9438 182.983 40.6526C183.183 40.5573 183.354 40.4066 183.48 40.2166C183.605 40.0265 183.678 39.8042 183.693 39.5733C183.693 39.0007 183.359 38.6042 182.691 38.3399C181.898 38.0616 181.078 37.877 180.247 37.7893C179.262 37.6717 178.286 37.4878 177.323 37.2386C176.387 37.0152 175.536 36.5012 174.88 35.7629C174.493 35.2611 174.209 34.6808 174.044 34.0581C173.879 33.4354 173.837 32.7835 173.922 32.1431C174.006 31.5027 174.214 30.8874 174.533 30.3355C174.853 29.7837 175.276 29.3069 175.778 28.9351C177.283 27.9238 179.049 27.4311 180.832 27.5254C182.558 27.4639 184.265 27.9141 185.761 28.8249C186.363 29.1849 186.882 29.6821 187.28 30.2803C187.677 30.8785 187.943 31.5626 188.058 32.2829C188.058 32.7234 187.87 32.9437 187.494 32.9437H184.403C184.273 32.9518 184.143 32.9183 184.032 32.8476C183.92 32.7768 183.831 32.6721 183.777 32.5472C183.57 32.0255 183.181 31.6076 182.691 31.3799C182.137 31.0745 181.519 30.9229 180.894 30.9394C180.282 30.9042 179.672 31.0331 179.119 31.3138C178.925 31.393 178.757 31.5318 178.638 31.7124C178.519 31.8929 178.454 32.107 178.451 32.327C178.464 32.6282 178.569 32.9169 178.749 33.1508C178.93 33.3847 179.176 33.5514 179.453 33.6265C180.255 33.9452 181.089 34.1669 181.939 34.2872C182.915 34.4228 183.884 34.6139 184.842 34.8599C185.778 35.0833 186.629 35.5973 187.285 36.3356C187.636 36.7423 187.908 37.2184 188.083 37.7363C188.259 38.2542 188.335 38.8037 188.308 39.3531C188.326 40.1144 188.157 40.8677 187.817 41.5394C187.476 42.2111 186.976 42.7783 186.366 43.1855C184.806 44.2419 182.977 44.772 181.124 44.7052Z" fill="#394149"/>
<path d="M209.706 43.5454C209.718 43.6265 209.715 43.7093 209.697 43.7891C209.679 43.8688 209.646 43.9439 209.601 44.0098C209.556 44.0758 209.499 44.1313 209.434 44.1731C209.369 44.2149 209.297 44.2422 209.222 44.2533C208.453 44.5255 207.651 44.6718 206.842 44.6872C206.042 44.7771 205.234 44.6414 204.497 44.2934C203.759 43.9453 203.116 43.3966 202.632 42.7004C201.144 44.0873 199.221 44.7989 197.263 44.6872C196.353 44.7327 195.445 44.5713 194.596 44.2134C193.748 43.8555 192.978 43.309 192.336 42.6091C191.698 41.8757 191.203 41.0102 190.881 40.0645C190.559 39.1188 190.417 38.1124 190.462 37.1054V28.1763C190.462 27.7424 190.651 27.514 191.051 27.514H194.589C194.989 27.514 195.178 27.7424 195.178 28.1763V36.4203C195.14 37.4475 195.463 38.4519 196.083 39.2293C196.393 39.5854 196.769 39.8654 197.187 40.0506C197.605 40.2357 198.054 40.3217 198.505 40.3026C198.966 40.3245 199.427 40.247 199.861 40.0745C200.294 39.902 200.692 39.638 201.031 39.2978C201.352 38.9391 201.602 38.5129 201.765 38.0455C201.928 37.5781 202.001 37.0794 201.979 36.5802V28.1763C201.979 27.7424 202.168 27.514 202.568 27.514H206.148C206.548 27.514 206.737 27.7424 206.737 28.1763V38.9324C206.737 39.823 207.095 40.2569 207.79 40.2569C208.116 40.2706 208.443 40.2321 208.758 40.1427C208.838 40.1185 208.922 40.1142 209.003 40.13C209.084 40.1459 209.161 40.1815 209.228 40.2342C209.295 40.287 209.35 40.3554 209.389 40.4345C209.428 40.5136 209.45 40.6012 209.453 40.6908L209.706 43.5454Z" fill="#394149"/>
<path d="M243.936 43.5996C243.955 43.6788 243.957 43.7615 243.942 43.8416C243.926 43.9217 243.895 43.9972 243.848 44.0628C243.802 44.1284 243.743 44.1824 243.674 44.221C243.606 44.2595 243.53 44.2816 243.453 44.2858C242.671 44.5533 241.855 44.6951 241.033 44.7063C239.782 44.7742 238.546 44.4003 237.52 43.6438C237.076 43.3198 236.716 42.8856 236.47 42.3798C236.224 41.874 236.101 41.3121 236.111 40.7441V35.5422C236.155 34.5496 235.839 33.5764 235.227 32.8196C234.932 32.4736 234.567 32.2008 234.16 32.0209C233.752 31.841 233.312 31.7585 232.871 31.7792C232.473 31.7634 232.077 31.8428 231.712 32.0115C231.348 32.1802 231.025 32.4338 230.767 32.7532C230.212 33.4949 229.928 34.4218 229.968 35.3651V43.5332C229.968 43.9537 229.778 44.1751 229.379 44.1751H225.823C225.741 44.1859 225.657 44.1767 225.578 44.1482C225.5 44.1197 225.428 44.0728 225.369 44.0109C225.31 43.949 225.266 43.8738 225.239 43.791C225.212 43.7082 225.203 43.62 225.213 43.5332V35.5422C225.259 34.5605 224.968 33.5941 224.393 32.8196C224.136 32.4942 223.815 32.2323 223.451 32.0525C223.088 31.8727 222.691 31.7794 222.289 31.7792C221.86 31.761 221.432 31.8383 221.033 32.0061C220.634 32.174 220.274 32.4285 219.975 32.7532C219.373 33.4712 219.064 34.4092 219.112 35.3651V43.5332C219.123 43.62 219.114 43.7082 219.087 43.791C219.06 43.8738 219.015 43.949 218.956 44.0109C218.898 44.0728 218.826 44.1197 218.747 44.1482C218.669 44.1767 218.585 44.1859 218.502 44.1751H215.073C214.674 44.1751 214.484 43.9537 214.484 43.5332V33.1073C214.509 32.9298 214.494 32.7486 214.44 32.5783C214.387 32.4079 214.296 32.2531 214.176 32.1263C214.055 31.9994 213.908 31.9039 213.746 31.8475C213.584 31.7911 213.412 31.7753 213.243 31.8013H212.549C212.086 31.8013 211.855 31.6242 211.855 31.2701V28.6581C211.844 28.4965 211.886 28.3358 211.974 28.2028C212.062 28.0699 212.191 27.9728 212.339 27.9276C213.066 27.6493 213.836 27.5142 214.611 27.5292C215.354 27.4626 216.1 27.6184 216.762 27.9787C217.425 28.3391 217.977 28.8892 218.355 29.5656C219.065 28.8578 219.906 28.3117 220.825 27.9613C221.744 27.6109 222.723 27.4638 223.699 27.5292C224.646 27.4805 225.592 27.6676 226.458 28.0752C227.324 28.4829 228.087 29.0997 228.684 29.8755C229.381 29.0793 230.236 28.4558 231.189 28.0501C232.143 27.6443 233.17 27.4664 234.196 27.5292C235.114 27.484 236.032 27.6396 236.89 27.9863C237.748 28.333 238.528 28.8633 239.182 29.5435C239.821 30.2529 240.317 31.0916 240.639 32.0086C240.96 32.9256 241.102 33.9019 241.054 34.8782V39.1503C241.054 39.9915 241.412 40.412 242.085 40.412C242.411 40.428 242.738 40.3907 243.053 40.3014C243.488 40.3014 243.719 40.4784 243.747 40.8326L243.936 43.5996Z" fill="#394149"/>
<path d="M0.832845 25.338C2.3315 18.2413 5.80234 11.9394 10.6927 7.43566C15.5831 2.9319 21.6119 0.485229 27.8191 0.485229C34.0263 0.485229 40.055 2.9319 44.9454 7.43566C49.8358 11.9394 53.3067 18.2413 54.8053 25.338H52.3677C48.2557 25.2666 44.2279 26.7145 40.8501 29.4782C40.6551 29.6445 40.4516 29.7964 40.2407 29.9329H39.9563C39.7454 29.7964 39.5418 29.6445 39.3469 29.4782C35.9391 26.7785 31.9257 25.3365 27.8191 25.3365C23.7125 25.3365 19.6991 26.7785 16.2913 29.4782C16.0963 29.6445 15.8928 29.7964 15.6819 29.9329H15.3975C15.1866 29.7964 14.983 29.6445 14.7881 29.4782C11.4103 26.7145 7.3825 25.2666 3.27044 25.338H0.832845ZM47.98 40.3434C49.2314 39.1953 50.7822 38.5947 52.3677 38.6442H55.6382V30.962H52.3677C49.5751 30.9222 46.8463 31.9463 44.5877 33.8817C43.3167 34.9857 41.7791 35.5813 40.2 35.5813C38.621 35.5813 37.0834 34.9857 35.8124 33.8817C33.4965 31.9824 30.7424 30.9642 27.9206 30.9642C25.0989 30.9642 22.3448 31.9824 20.0289 33.8817C18.7579 34.9857 17.2203 35.5813 15.6413 35.5813C14.0622 35.5813 12.5246 34.9857 11.2536 33.8817C8.96711 31.9215 6.19921 30.8962 3.37201 30.962H0V38.6442H3.27044C4.85592 38.5947 6.4068 39.1953 7.65812 40.3434C9.96979 42.2439 12.7208 43.263 15.5397 43.263C18.3586 43.263 21.1096 42.2439 23.4213 40.3434C24.6742 39.1988 26.2239 38.5986 27.8089 38.6442C29.3949 38.5906 30.9469 39.1917 32.1966 40.3434C34.5125 42.2427 37.2666 43.2609 40.0883 43.2609C42.9101 43.2609 45.6642 42.2427 47.98 40.3434ZM47.98 54.0804C49.2314 52.9323 50.7822 52.3317 52.3677 52.3812H55.6382V44.699H52.3677C49.5751 44.6592 46.8463 45.6833 44.5877 47.6187C43.3167 48.7227 41.7791 49.3183 40.2 49.3183C38.621 49.3183 37.0834 48.7227 35.8124 47.6187C33.4965 45.7194 30.7424 44.7012 27.9206 44.7012C25.0989 44.7012 22.3448 45.7194 20.0289 47.6187C18.7579 48.7227 17.2203 49.3183 15.6413 49.3183C14.0622 49.3183 12.5246 48.7227 11.2536 47.6187C8.96711 45.6585 6.19921 44.6332 3.37201 44.699H0V52.3812H3.27044C4.85592 52.3317 6.4068 52.9323 7.65812 54.0804C9.96979 55.9809 12.7208 57 15.5397 57C18.3586 57 21.1096 55.9809 23.4213 54.0804C24.6742 52.9358 26.2239 52.3356 27.8089 52.3812C29.3949 52.3276 30.9469 52.9287 32.1966 54.0804C34.5125 55.9797 37.2666 56.9979 40.0883 56.9979C42.9101 56.9979 45.6642 55.9797 47.98 54.0804Z" fill="#394149"/>
</svg>
