<svg width="196" height="46" viewBox="0 0 196 46" fill="none" xmlns="http://www.w3.org/2000/svg">
<path d="M29.451 19.6496C28.8867 20.3011 28.4546 21.0874 28.1854 21.9524C27.9162 22.8174 27.8166 23.7399 27.8936 24.6542L27.8668 24.6234C27.9459 25.6996 27.8195 26.7827 27.4963 27.797C27.173 28.8113 26.6608 29.7324 25.9953 30.4961C25.3298 31.2598 24.5271 31.8476 23.6432 32.2185C22.7593 32.5895 21.8155 32.7346 20.8777 32.6437L20.9045 32.6745C19.7827 32.5547 18.656 32.8348 17.678 33.4767C16.7001 34.1186 15.9184 35.091 15.4397 36.2614C14.9609 37.4317 14.8084 38.7431 15.0029 40.0165C15.1974 41.29 15.7294 42.4637 16.5264 43.3774C17.3234 44.2912 18.3467 44.9007 19.4566 45.1227C20.5665 45.3447 21.709 45.1685 22.7285 44.6181C23.7479 44.0677 24.5946 43.1698 25.1531 42.047C25.7116 40.9241 25.9547 39.6309 25.8493 38.3437L25.8776 38.3745C25.7984 37.2983 25.9248 36.2152 26.2481 35.2009C26.5713 34.1866 27.0836 33.2655 27.7491 32.5018C28.4145 31.7381 29.2172 31.1503 30.1011 30.7794C30.985 30.4084 31.9288 30.2633 32.8666 30.3542L32.8383 30.3234C33.7547 30.418 34.677 30.2456 35.5199 29.8222C36.3627 29.3987 37.0988 28.738 37.6598 27.9013C38.2209 27.0645 38.5888 26.0787 38.7295 25.0353C38.8702 23.9919 38.7791 22.9246 38.4646 21.9324C38.1501 20.9402 37.6225 20.0551 36.9306 19.3592C36.2387 18.6633 35.4049 18.1791 34.5064 17.9514C33.608 17.7238 32.674 17.7601 31.7911 18.0569C30.9081 18.3538 30.1048 18.9016 29.4555 19.6496H29.451Z" fill="#394149"/>
<path d="M18.9472 29.0374L18.9197 29.0074C19.695 29.0971 20.4779 28.9878 21.2119 28.6875C21.9459 28.3871 22.6126 27.9032 23.1638 27.2707C23.715 26.6382 24.1369 25.873 24.399 25.0303C24.661 24.1876 24.7568 23.2886 24.6793 22.3982L24.7068 22.4282C24.6298 21.3807 24.7528 20.3265 25.0672 19.3392C25.3816 18.3519 25.8798 17.4553 26.5271 16.712C27.1744 15.9686 27.9551 15.3965 28.8148 15.0354C29.6746 14.6744 30.5925 14.5331 31.5047 14.6215L31.4772 14.5916C32.5684 14.7093 33.6646 14.4375 34.6164 13.8134C35.5682 13.1893 36.3291 12.2433 36.7955 11.1042C37.2618 9.96524 37.4109 8.68875 37.2223 7.44889C37.0337 6.20904 36.5166 5.06618 35.7416 4.17619C34.9666 3.2862 33.9714 2.69242 32.8918 2.47583C31.8121 2.25925 30.7006 2.4304 29.7088 2.96595C28.7169 3.5015 27.8931 4.37538 27.3496 5.46838C26.8062 6.56138 26.5695 7.8203 26.672 9.07342L26.6459 9.04181C26.7232 10.0894 26.6004 11.1437 26.2861 12.1311C25.9718 13.1185 25.4735 14.0153 24.8262 14.7587C24.1788 15.5021 23.398 16.0742 22.5382 16.4352C21.6783 16.7961 20.7602 16.9372 19.848 16.8484L19.8741 16.88C19.0988 16.7903 18.3159 16.8996 17.5819 17.1999C16.8479 17.5003 16.1812 17.9842 15.63 18.6167C15.0788 19.2492 14.6569 20.0145 14.3948 20.8571C14.1328 21.6998 14.037 22.5988 14.1145 23.4892L14.0885 23.4593C14.1652 24.5067 14.0421 25.5608 13.7276 26.5479C13.4131 27.5351 12.9148 28.4316 12.2676 29.1749C11.6204 29.9181 10.8397 30.4903 9.98013 30.8514C9.12052 31.2126 8.20266 31.354 7.29056 31.2659L7.31663 31.2959C6.22542 31.1782 5.12917 31.4499 4.1774 32.074C3.22563 32.6981 2.46467 33.6442 1.99832 34.7832C1.53197 35.9222 1.38293 37.1987 1.57153 38.4386C1.76013 39.6784 2.27719 40.8213 3.05218 41.7113C3.82717 42.6013 4.82236 43.195 5.90201 43.4116C6.98167 43.6282 8.09322 43.4571 9.08505 42.9215C10.0769 42.386 10.9007 41.5121 11.4442 40.4191C11.9876 39.3261 12.2243 38.0672 12.1218 36.814L12.1493 36.844C12.0723 35.7965 12.1953 34.7423 12.5097 33.755C12.8241 32.7677 13.3223 31.8711 13.9696 31.1278C14.6169 30.3844 15.3977 29.8123 16.2574 29.4512C17.1171 29.0902 18.0351 28.9489 18.9472 29.0374Z" fill="#394149"/>
<path d="M8.75354 26.2373C9.2827 25.5859 9.68783 24.7995 9.94003 23.9343C10.1922 23.0691 10.2853 22.1464 10.2125 21.2321L10.239 21.2629C10.1647 20.1862 10.2833 19.1027 10.5866 18.088C10.8898 17.0733 11.3704 16.1519 11.9947 15.388C12.6191 14.6242 13.3721 14.0364 14.2012 13.6656C15.0304 13.2949 15.9156 13.1501 16.7952 13.2415L16.7687 13.2108C17.8203 13.3314 18.8766 13.052 19.7938 12.4108C20.7109 11.7695 21.4441 10.7977 21.8934 9.62769C22.3427 8.45772 22.4862 7.1466 22.3044 5.87311C22.1226 4.59963 21.6243 3.42578 20.8775 2.51165C20.1306 1.59752 19.1716 0.987594 18.1312 0.765061C17.0907 0.542527 16.0196 0.718216 15.0637 1.26816C14.1078 1.81811 13.3138 2.71555 12.7899 3.8381C12.2661 4.96064 12.0378 6.25365 12.1363 7.5408L12.1112 7.51004C12.1854 8.58636 12.0669 9.66955 11.7638 10.684C11.4607 11.6984 10.9804 12.6197 10.3564 13.3835C9.73237 14.1473 8.97971 14.7352 8.15091 15.1061C7.32212 15.4771 6.43716 15.6222 5.55782 15.5314L5.58295 15.5621C4.72373 15.4678 3.85897 15.6405 3.06879 16.0642C2.27861 16.4878 1.58859 17.1488 1.06265 17.9857C0.536718 18.8227 0.191894 19.8086 0.0601345 20.8521C-0.071625 21.8956 0.013942 22.963 0.308907 23.9552C0.603872 24.9475 1.09869 25.8325 1.74751 26.5284C2.39633 27.2243 3.17816 27.7084 4.02055 27.936C4.86294 28.1636 5.73862 28.1272 6.56647 27.8303C7.39432 27.5333 8.14754 26.9854 8.75633 26.2373H8.75354Z" fill="#394149"/>
<path d="M53.7145 9.23761H58.1907V33.2233H53.7145V9.23761Z" fill="#394149"/>
<path d="M59.683 24.6911C59.6771 22.9954 60.1096 21.3359 60.9257 19.9227C61.7419 18.5096 62.9049 17.4063 64.2676 16.7527C65.6302 16.0991 67.1312 15.9246 68.5803 16.2512C70.0294 16.5778 71.3615 17.391 72.4078 18.5876C73.4541 19.7842 74.1676 21.3104 74.4579 22.973C74.7482 24.6356 74.6022 26.3597 74.0385 27.9269C73.4747 29.4941 72.5185 30.834 71.291 31.7768C70.0636 32.7196 68.62 33.2228 67.1433 33.2228C66.163 33.2357 65.1903 33.024 64.2821 32.6002C63.3739 32.1764 62.5483 31.549 61.8537 30.7547C61.1591 29.9603 60.6094 29.0149 60.2367 27.9738C59.864 26.9327 59.6757 25.8167 59.683 24.6911ZM70.3807 24.6911C70.3631 23.9602 70.1583 23.2515 69.7918 22.6535C69.4253 22.0556 68.9134 21.595 68.3202 21.3293C67.7269 21.0635 67.0786 21.0045 66.4563 21.1595C65.834 21.3146 65.2653 21.6768 64.8213 22.2009C64.3773 22.725 64.0777 23.3878 63.96 24.1064C63.8423 24.825 63.9116 25.5674 64.1594 26.241C64.4072 26.9145 64.8224 27.4893 65.3531 27.8934C65.8838 28.2975 66.5065 28.5129 67.1433 28.5129C67.5794 28.5263 68.0131 28.4357 68.4172 28.247C68.8214 28.0583 69.187 27.7755 69.4912 27.4164C69.7954 27.0573 70.0315 26.6298 70.1846 26.1607C70.3377 25.6917 70.4044 25.1913 70.3807 24.6911Z" fill="#394149"/>
<path d="M92.5083 16.5613V32.1869C92.5083 37.7158 88.8756 40.053 85.1883 40.053C83.89 40.1683 82.5901 39.857 81.431 39.1533C80.2719 38.4495 79.2985 37.3805 78.6175 36.0634L82.1662 33.6282C82.4524 34.3147 82.9085 34.8811 83.4734 35.2516C84.0382 35.622 84.6849 35.7788 85.3269 35.701C85.7373 35.7685 86.1551 35.7256 86.5496 35.5756C86.9441 35.4255 87.305 35.172 87.6059 34.834C87.9067 34.4959 88.1396 34.0819 88.2874 33.6225C88.4352 33.1632 88.4941 32.6703 88.4597 32.1803V30.6759C87.9727 31.3833 87.3527 31.9453 86.6496 32.3168C85.9465 32.6883 85.1798 32.8591 84.4111 32.8153C82.5818 32.7468 80.8469 31.8361 79.5733 30.276C78.2998 28.7159 77.5876 26.6288 77.5876 24.4564C77.5876 22.284 78.2998 20.1969 79.5733 18.6368C80.8469 17.0766 82.5818 16.166 84.4111 16.0975C85.1798 16.0537 85.9465 16.2244 86.6496 16.596C87.3527 16.9675 87.9727 17.5295 88.4597 18.2369V16.5579L92.5083 16.5613ZM88.4611 24.4589C88.4891 23.6632 88.3158 22.8758 87.9635 22.1981C87.6113 21.5203 87.0963 20.9832 86.4847 20.6558C85.8731 20.3284 85.193 20.2258 84.5319 20.3611C83.8707 20.4965 83.2589 20.8635 82.775 21.4151C82.2911 21.9667 81.9573 22.6776 81.8167 23.4562C81.676 24.2349 81.7349 25.0457 81.9857 25.7843C82.2366 26.5228 82.6679 27.1554 83.2242 27.6006C83.7804 28.0458 84.4362 28.2831 85.1071 28.2822C85.5441 28.3184 85.9826 28.2455 86.3945 28.0683C86.8063 27.8911 87.1824 27.6135 87.4983 27.2533C87.8143 26.8932 88.0632 26.4584 88.229 25.9771C88.3948 25.4958 88.4739 24.9786 88.4611 24.4589Z" fill="#394149"/>
<path d="M95.4927 24.6911C95.4868 22.9954 95.9193 21.3359 96.7354 19.9227C97.5515 18.5096 98.7146 17.4063 100.077 16.7527C101.44 16.0991 102.941 15.9246 104.39 16.2512C105.839 16.5778 107.171 17.391 108.218 18.5876C109.264 19.7842 109.977 21.3104 110.268 22.973C110.558 24.6356 110.412 26.3597 109.848 27.9269C109.284 29.4941 108.328 30.834 107.101 31.7768C105.873 32.7196 104.43 33.2228 102.953 33.2228C101.973 33.2357 101 33.024 100.092 32.6002C99.1836 32.1764 98.358 31.549 97.6634 30.7547C96.9688 29.9603 96.4191 29.0149 96.0464 27.9738C95.6737 26.9327 95.4854 25.8167 95.4927 24.6911ZM106.19 24.6911C106.173 23.9602 105.968 23.2515 105.601 22.6535C105.235 22.0556 104.723 21.595 104.13 21.3293C103.537 21.0635 102.888 21.0045 102.266 21.1595C101.644 21.3146 101.075 21.6768 100.631 22.2009C100.187 22.725 99.8874 23.3878 99.7697 24.1064C99.652 24.825 99.7213 25.5674 99.9691 26.241C100.217 26.9145 100.632 27.4893 101.163 27.8934C101.693 28.2975 102.316 28.5129 102.953 28.5129C103.389 28.5263 103.823 28.4357 104.227 28.247C104.631 28.0583 104.997 27.7755 105.301 27.4164C105.605 27.0573 105.841 26.6298 105.994 26.1607C106.147 25.6917 106.214 25.1913 106.19 24.6911Z" fill="#394149"/>
<path d="M111.905 12.2193C111.905 11.6296 112.08 11.0531 112.408 10.5628C112.736 10.0724 113.202 9.69026 113.747 9.46458C114.293 9.2389 114.893 9.17985 115.472 9.2949C116.05 9.40995 116.582 9.69393 116.999 10.1109C117.417 10.5279 117.701 11.0592 117.816 11.6376C117.931 12.216 117.872 12.8155 117.646 13.3603C117.42 13.9052 117.038 14.3708 116.547 14.6985C116.057 15.0261 115.48 15.201 114.889 15.201C114.1 15.1931 113.346 14.8765 112.788 14.319C112.23 13.7615 111.913 13.0077 111.905 12.2193ZM112.408 16.6584H117.383V33.2233H112.401L112.408 16.6584Z" fill="#394149"/>
<path d="M135.768 24.9657C135.821 26.0755 135.674 27.1858 135.336 28.2328C134.997 29.2798 134.475 30.2429 133.798 31.0666C133.12 31.8904 132.302 32.5585 131.39 33.0327C130.477 33.5069 129.488 33.7777 128.481 33.8296C127.633 33.8806 126.786 33.7231 126 33.3688C125.215 33.0144 124.511 32.4719 123.939 31.7807V40.0764H119.366V16.5699H123.939V18.1473C124.511 17.4566 125.215 16.9146 126.001 16.5606C126.786 16.2065 127.633 16.0492 128.481 16.1001C129.489 16.1518 130.477 16.4225 131.39 16.8967C132.303 17.3709 133.121 18.0393 133.799 18.8633C134.476 19.6872 134.999 20.6506 135.336 21.6979C135.674 22.7452 135.821 23.8558 135.768 24.9657ZM131.194 24.9657C131.176 24.1799 130.948 23.4173 130.539 22.7734C130.129 22.1295 129.557 21.6329 128.892 21.3458C128.228 21.0587 127.501 20.9938 126.803 21.1592C126.106 21.3247 125.468 21.7131 124.969 22.2759C124.471 22.8387 124.135 23.5509 124.002 24.3233C123.869 25.0957 123.947 25.8941 124.224 26.6184C124.501 27.3427 124.966 27.9609 125.561 28.3955C126.156 28.8302 126.854 29.0619 127.567 29.0618C128.057 29.0859 128.546 28.9955 129.003 28.7968C129.459 28.598 129.871 28.2954 130.214 27.9086C130.556 27.5218 130.821 27.0597 130.99 26.5526C131.158 26.0454 131.228 25.5046 131.194 24.9657Z" fill="#394149"/>
<path d="M149.207 27.8827C149.207 31.6076 146.033 33.1945 142.605 33.1945C141.22 33.3225 139.829 33.0236 138.612 32.3365C137.395 31.6494 136.408 30.6057 135.778 29.3403L139.904 26.9437C140.071 27.5286 140.43 28.0374 140.92 28.3851C141.41 28.7329 142.003 28.8985 142.598 28.8544C143.74 28.8544 144.313 28.4978 144.313 27.8516C144.313 26.0684 136.502 27.0091 136.502 21.4061C136.502 17.8742 139.423 16.0943 142.725 16.0943C143.966 16.0542 145.195 16.3546 146.284 16.964C147.373 17.5734 148.281 18.4696 148.915 19.5592L144.852 21.7938C144.673 21.3696 144.377 21.0083 143.999 20.7549C143.62 20.5015 143.178 20.3673 142.725 20.3689C141.899 20.3689 141.391 20.6961 141.391 21.2752C141.397 23.1222 149.207 21.8903 149.207 27.8827Z" fill="#394149"/>
<path d="M164.128 16.0908V32.744H159.929V31.1779C159.445 31.8689 158.83 32.4134 158.135 32.7666C157.439 33.1199 156.683 33.2718 155.929 33.2099C153.102 33.2099 150.699 30.8129 150.699 26.3131V16.0908H154.897V25.5814C154.862 25.978 154.9 26.379 155.008 26.7564C155.117 27.1338 155.293 27.4786 155.524 27.7668C155.756 28.055 156.038 28.2796 156.35 28.4251C156.662 28.5706 156.997 28.6334 157.331 28.6093C158.871 28.6093 159.934 27.5445 159.934 25.1794V16.0958L164.128 16.0908Z" fill="#394149"/>
<path d="M189.493 23.0012V33.2234H185.016V23.4334C185.016 21.7684 184.3 20.7038 182.868 20.7038C181.376 20.7038 180.54 21.8693 180.54 23.8337V33.2234H176.065V23.4334C176.065 21.7684 175.349 20.7038 173.915 20.7038C172.423 20.7038 171.588 21.8693 171.588 23.8337V33.2234H167.112V16.5732H171.588V18.1037C172.052 17.4247 172.661 16.8862 173.36 16.5375C174.058 16.1888 174.824 16.0409 175.587 16.1073C176.353 16.0655 177.116 16.2459 177.801 16.6308C178.486 17.0157 179.069 17.5921 179.495 18.3038C179.991 17.5593 180.648 16.9673 181.405 16.5832C182.162 16.199 182.994 16.0353 183.823 16.1073C187.249 16.109 189.493 18.8386 189.493 23.0012Z" fill="#394149"/>
<path d="M192.477 16.0907C194.125 16.0907 195.461 14.5566 195.461 12.6641C195.461 10.7717 194.125 9.23761 192.477 9.23761C190.829 9.23761 189.493 10.7717 189.493 12.6641C189.493 14.5566 190.829 16.0907 192.477 16.0907Z" fill="#394149"/>
</svg>
